<svg xmlns="http://www.w3.org/2000/svg" viewBox="0 0 640 420" role="img" aria-label="Dental cleaning">
  <defs>
    <linearGradient id="bg" x1="0" y1="0" x2="1" y2="1">
      <stop offset="0" stop-color="#F0FAF8"/>
      <stop offset="1" stop-color="#CDEFEA"/>
    </linearGradient>
    <filter id="soft"><feDropShadow dx="0" dy="18" stdDeviation="18" flood-color="#2D3748" flood-opacity="0.12"/></filter>
  </defs>
  <rect width="640" height="420" rx="28" fill="url(#bg)"/>
  <path d="M228 104c34-32 86-32 120 0 31 30 36 80 13 127l-45 91c-10 20-39 18-45-4l-15-55c-3-12-20-12-23 0l-15 55c-6 22-35 24-45 4l-45-91c-23-47-18-97 13-127Z" fill="#FFFFFF" filter="url(#soft)"/>
  <path d="M398 126l92 92M492 132l-100 100" stroke="#4A6FA5" stroke-width="16" stroke-linecap="round"/>
  <path d="M451 99l58 58" stroke="#7FD8BE" stroke-width="34" stroke-linecap="round"/>
  <circle cx="130" cy="116" r="22" fill="#FFFFFF" opacity="0.8"/>
  <circle cx="118" cy="186" r="12" fill="#FFFFFF" opacity="0.9"/>
  <circle cx="540" cy="282" r="18" fill="#FFFFFF" opacity="0.85"/>
  <path d="M188 184c35 18 77 18 112 0" stroke="#A8DADC" stroke-width="12" stroke-linecap="round"/>
</svg>
