<svg xmlns="http://www.w3.org/2000/svg" viewBox="0 0 640 420" role="img" aria-label="Cosmetic dental care">
  <defs>
    <linearGradient id="bg" x1="0" y1="0" x2="1" y2="1">
      <stop offset="0" stop-color="#FFE5EC"/>
      <stop offset="0.56" stop-color="#FFFFFF"/>
      <stop offset="1" stop-color="#CDEFEA"/>
    </linearGradient>
    <filter id="soft"><feDropShadow dx="0" dy="18" stdDeviation="18" flood-color="#2D3748" flood-opacity="0.1"/></filter>
  </defs>
  <rect width="640" height="420" rx="28" fill="url(#bg)"/>
  <path d="M214 110c34-31 86-31 120 0 31 29 36 78 13 124l-45 88c-10 20-39 17-45-4l-15-52c-3-12-20-12-23 0l-15 52c-6 21-35 24-45 4l-45-88c-23-46-18-95 13-124Z" fill="#FFFFFF" filter="url(#soft)"/>
  <path d="M432 98l16 38 38 16-38 16-16 38-16-38-38-16 38-16 16-38Z" fill="#7FD8BE"/>
  <path d="M484 224l11 26 26 11-26 11-11 26-11-26-26-11 26-11 11-26Z" fill="#4A6FA5" opacity="0.82"/>
  <path d="M169 210c42 32 119 32 161 0" fill="none" stroke="#FFE5EC" stroke-width="14" stroke-linecap="round"/>
</svg>
