<svg xmlns="http://www.w3.org/2000/svg" viewBox="0 0 640 420" role="img" aria-label="Dental implant">
  <defs>
    <linearGradient id="bg" x1="0" y1="0" x2="1" y2="1">
      <stop offset="0" stop-color="#FFF8F0"/>
      <stop offset="0.55" stop-color="#FFFFFF"/>
      <stop offset="1" stop-color="#CDEFEA"/>
    </linearGradient>
    <filter id="soft"><feDropShadow dx="0" dy="20" stdDeviation="18" flood-color="#2D3748" flood-opacity="0.12"/></filter>
  </defs>
  <rect width="640" height="420" rx="28" fill="url(#bg)"/>
  <path d="M234 78c42-36 104-36 146 0 39 34 44 90 16 144l-34 66c-13 25-49 21-57-6l-15-52c-4-13-22-13-26 0l-15 52c-8 27-44 31-57 6l-34-66c-28-54-23-110 16-144Z" fill="#FFFFFF" filter="url(#soft)"/>
  <rect x="284" y="226" width="56" height="118" rx="18" fill="#A8DADC" stroke="#4A6FA5" stroke-width="10"/>
  <path d="M280 254h64M280 286h64M280 318h64" stroke="#FFFFFF" stroke-width="10" stroke-linecap="round"/>
  <circle cx="476" cy="116" r="38" fill="#FFE5EC"/>
  <path d="M462 116h28M476 102v28" stroke="#4A6FA5" stroke-width="9" stroke-linecap="round"/>
</svg>
