<svg xmlns="http://www.w3.org/2000/svg" viewBox="0 0 480 480" role="img" aria-label="Dentist portrait">
  <defs>
    <linearGradient id="bg" x1="0" y1="0" x2="1" y2="1">
      <stop offset="0" stop-color="#F8FCFC"/>
      <stop offset="1" stop-color="#CDEFEA"/>
    </linearGradient>
  </defs>
  <rect width="480" height="480" rx="36" fill="url(#bg)"/>
  <circle cx="240" cy="154" r="78" fill="#F4C7B8"/>
  <path d="M150 168c6-82 72-116 132-92 28 11 50 35 58 70-52-28-100 18-190 22Z" fill="#2D3748"/>
  <path d="M124 408c18-88 72-138 116-138s98 50 116 138" fill="#FFFFFF"/>
  <path d="M190 292l50 82 50-82" fill="none" stroke="#A8DADC" stroke-width="18" stroke-linecap="round" stroke-linejoin="round"/>
  <rect x="168" y="312" width="64" height="110" rx="18" fill="#FFFFFF" opacity="0.95"/>
  <rect x="248" y="312" width="64" height="110" rx="18" fill="#FFFFFF" opacity="0.95"/>
  <circle cx="206" cy="162" r="7" fill="#2D3748"/>
  <circle cx="276" cy="162" r="7" fill="#2D3748"/>
  <path d="M214 194c22 16 46 16 68 0" stroke="#FFFFFF" stroke-width="8" stroke-linecap="round"/>
</svg>
